<?xml version="1.0" encoding="iso-8859-1"?>
<!-- Generator: Adobe Illustrator 19.0.0, SVG Export Plug-In . SVG Version: 6.00 Build 0)  -->
<svg version="1.1" id="Layer_1" xmlns="http://www.w3.org/2000/svg" xmlns:xlink="http://www.w3.org/1999/xlink" x="0px" y="0px"
	 viewBox="0 0 511.999 511.999" style="enable-background:new 0 0 511.999 511.999;" xml:space="preserve">
<polygon style="fill:#C6E267;" points="381.861,375.94 381.861,136.06 256,10.199 130.14,136.06 130.14,375.94 256,501.801 "/>
<g>
	<path style="fill:#00537B;" d="M389.073,128.847L263.212,2.987c-3.983-3.983-10.441-3.983-14.425,0l-125.86,125.86
		c-1.912,1.912-2.987,4.507-2.987,7.212v239.88c0,2.705,1.075,5.3,2.987,7.212l125.86,125.86c1.992,1.992,4.602,2.987,7.212,2.987
		s5.221-0.995,7.212-2.987l125.86-125.86c1.912-1.912,2.987-4.507,2.987-7.212V136.06
		C392.06,133.354,390.986,130.761,389.073,128.847z M310.674,129.68l-29.77-80.154l80.154,80.154H310.674z M292.25,138.659v234.682
		L256,470.937l-36.25-97.595V138.659L256,41.064L292.25,138.659z M201.327,129.68h-50.382l80.153-80.154L201.327,129.68z
		 M199.353,150.078v211.845h-59.014V150.078H199.353z M201.327,382.321l29.77,80.154l-80.154-80.154H201.327z M310.674,382.321
		h50.382l-80.153,80.154L310.674,382.321z M312.649,361.923V150.078h59.014v211.845H312.649z"/>
	<path style="fill:#00537B;" d="M352.893,353.912c-5.633,0-10.199-4.566-10.199-10.199V237.641c0-5.633,4.566-10.199,10.199-10.199
		c5.633,0,10.199,4.566,10.199,10.199v106.072C363.092,349.346,358.526,353.912,352.893,353.912z"/>
	<path style="fill:#00537B;" d="M352.893,216.223c-5.633,0-10.199-4.566-10.199-10.199v-3.06c0-5.633,4.566-10.199,10.199-10.199
		c5.633,0,10.199,4.566,10.199,10.199v3.06C363.092,211.657,358.526,216.223,352.893,216.223z"/>
</g>
<g>
</g>
<g>
</g>
<g>
</g>
<g>
</g>
<g>
</g>
<g>
</g>
<g>
</g>
<g>
</g>
<g>
</g>
<g>
</g>
<g>
</g>
<g>
</g>
<g>
</g>
<g>
</g>
<g>
</g>
</svg>
